<svg xmlns="http://www.w3.org/2000/svg" width="20" height="20" viewBox="0 0 20 20" fill="none">
  <rect width="20" height="20" fill="#AC937A"/>
  <path d="M18.2879 6.56681C18.2488 5.68124 18.1056 5.07242 17.9005 4.54487C17.6889 3.98489 17.3633 3.48354 16.9367 3.06677C16.5199 2.6435 16.0153 2.31461 15.4618 2.10629C14.9312 1.90114 14.3255 1.75794 13.44 1.71889C12.5478 1.67654 12.2646 1.66675 10.0017 1.66675C7.73892 1.66675 7.45568 1.67654 6.56681 1.71559C5.68124 1.75463 5.07242 1.89796 4.545 2.10298C3.98489 2.31461 3.48354 2.6402 3.06677 3.06677C2.6435 3.48354 2.31474 3.9882 2.10629 4.54169C1.90114 5.07242 1.75794 5.67794 1.71889 6.5635C1.67654 7.45568 1.66675 7.73892 1.66675 10.0017C1.66675 12.2646 1.67654 12.5478 1.71559 13.4367C1.75463 14.3222 1.89796 14.931 2.10311 15.4586C2.31474 16.0186 2.6435 16.5199 3.06677 16.9367C3.48354 17.36 3.9882 17.6889 4.54169 17.8972C5.07242 18.1023 5.67794 18.2455 6.56363 18.2846C7.45238 18.3238 7.73574 18.3334 9.99856 18.3334C12.2614 18.3334 12.5446 18.3238 13.4335 18.2846C14.319 18.2455 14.9279 18.1023 15.4553 17.8972C16.5754 17.4641 17.4609 16.5786 17.894 15.4586C18.099 14.9279 18.2424 14.3222 18.2814 13.4367C18.3204 12.5478 18.3302 12.2646 18.3302 10.0017C18.3302 7.73892 18.3269 7.45568 18.2879 6.56681ZM16.787 13.3715C16.7511 14.1855 16.6144 14.625 16.5005 14.9181C16.2204 15.6442 15.6442 16.2204 14.9181 16.5005C14.625 16.6144 14.1823 16.7511 13.3715 16.7869C12.4925 16.8261 12.2288 16.8357 10.005 16.8357C7.78127 16.8357 7.51431 16.8261 6.63841 16.7869C5.82445 16.7511 5.38491 16.6144 5.09188 16.5005C4.73056 16.3669 4.40167 16.1553 4.13471 15.8786C3.85796 15.6083 3.64633 15.2827 3.51279 14.9214C3.39884 14.6284 3.26212 14.1855 3.22638 13.3749C3.18721 12.4958 3.17754 12.232 3.17754 10.0082C3.17754 7.78445 3.18721 7.51749 3.22638 6.64172C3.26212 5.82776 3.39884 5.38822 3.51279 5.09519C3.64633 4.73374 3.85796 4.40497 4.13802 4.13789C4.40815 3.86114 4.73374 3.64951 5.09519 3.5161C5.38822 3.40214 5.83106 3.26542 6.64172 3.22956C7.5208 3.19051 7.78457 3.18072 10.0082 3.18072C12.2353 3.18072 12.499 3.19051 13.3749 3.22956C14.1888 3.26542 14.6284 3.40214 14.9214 3.5161C15.2827 3.64951 15.6116 3.86114 15.8786 4.13789C16.1553 4.40815 16.3669 4.73374 16.5005 5.09519C16.6144 5.38822 16.7511 5.83094 16.787 6.64172C16.8261 7.5208 16.8359 7.78445 16.8359 10.0082C16.8359 12.232 16.8261 12.4925 16.787 13.3715Z" fill="white"/>
  <path d="M10.0019 5.72046C7.63823 5.72046 5.72046 7.63811 5.72046 10.0019C5.72046 12.3657 7.63823 14.2834 10.0019 14.2834C12.3657 14.2834 14.2834 12.3657 14.2834 10.0019C14.2834 7.63811 12.3657 5.72046 10.0019 5.72046ZM10.0019 12.7792C8.46848 12.7792 7.22464 11.5355 7.22464 10.0019C7.22464 8.46835 8.46848 7.22464 10.0019 7.22464C11.5355 7.22464 12.7792 8.46835 12.7792 10.0019C12.7792 11.5355 11.5355 12.7792 10.0019 12.7792Z" fill="white"/>
  <path d="M15.4523 5.55055C15.4523 6.10252 15.0047 6.55007 14.4526 6.55007C13.9007 6.55007 13.4531 6.10252 13.4531 5.55055C13.4531 4.99845 13.9007 4.55103 14.4526 4.55103C15.0047 4.55103 15.4523 4.99845 15.4523 5.55055Z" fill="white"/>
</svg>