<svg width="20" height="20" viewBox="0 0 20 20" fill="none" xmlns="http://www.w3.org/2000/svg">
<path d="M18.3292 18.3329L18.3334 18.3322V12.2196C18.3334 9.22928 17.6897 6.92578 14.1938 6.92578C12.5132 6.92578 11.3854 7.84801 10.925 8.72233H10.8764V7.20495H7.56177V18.3322H11.0132V12.8224C11.0132 11.3717 11.2882 9.96887 13.0847 9.96887C14.8549 9.96887 14.8813 11.6244 14.8813 12.9154V18.3329H18.3292Z" fill="#232729"/>
<path d="M1.94116 7.20581H5.39676V18.333H1.94116V7.20581Z" fill="#232729"/>
<path d="M3.66816 1.66675C2.56329 1.66675 1.66675 2.56329 1.66675 3.66816C1.66675 4.77303 2.56329 5.68832 3.66816 5.68832C4.77303 5.68832 5.66957 4.77303 5.66957 3.66816C5.66887 2.56329 4.77234 1.66675 3.66816 1.66675Z" fill="#232729"/>
</svg>
