<svg width="24" height="24" viewBox="0 0 24 24" fill="none" xmlns="http://www.w3.org/2000/svg">
<path d="M22.1381 16.92V19.92C22.1392 20.1985 22.0822 20.4741 21.9706 20.7293C21.8591 20.9845 21.6954 21.2136 21.4902 21.4018C21.285 21.5901 21.0427 21.7335 20.7789 21.8227C20.515 21.9119 20.2355 21.945 19.9581 21.92C16.881 21.5856 13.9251 20.5341 11.3281 18.85C8.91194 17.3146 6.86345 15.2661 5.32812 12.85C3.63809 10.2412 2.58636 7.27097 2.25812 4.17997C2.23313 3.90344 2.26599 3.62474 2.35462 3.3616C2.44324 3.09846 2.58569 2.85666 2.77288 2.6516C2.96008 2.44653 3.18792 2.28268 3.44191 2.1705C3.69589 2.05831 3.97046 2.00024 4.24812 1.99997H7.24812C7.73342 1.9952 8.20391 2.16705 8.57188 2.48351C8.93985 2.79996 9.18019 3.23942 9.24812 3.71997C9.37474 4.68004 9.60957 5.6227 9.94812 6.52997C10.0827 6.8879 10.1118 7.27689 10.032 7.65086C9.95227 8.02482 9.76698 8.36809 9.49812 8.63998L8.22812 9.90997C9.65167 12.4135 11.7246 14.4864 14.2281 15.91L15.4981 14.64C15.77 14.3711 16.1133 14.1858 16.4872 14.1061C16.8612 14.0263 17.2502 14.0554 17.6081 14.19C18.5154 14.5285 19.4581 14.7634 20.4181 14.89C20.9039 14.9585 21.3475 15.2032 21.6646 15.5775C21.9818 15.9518 22.1503 16.4296 22.1381 16.92Z" fill="#AC937A"/>
</svg>
