<svg width="20" height="20" viewBox="0 0 20 20" fill="none" xmlns="http://www.w3.org/2000/svg">
<path d="M18.2878 6.56901C18.2487 5.68344 18.1055 5.07462 17.9004 4.54707C17.6887 3.98709 17.3632 3.48574 16.9366 3.06896C16.5198 2.6457 16.0152 2.31681 15.4617 2.10849C14.9311 1.90334 14.3254 1.76013 13.4398 1.72109C12.5477 1.67874 12.2644 1.66895 10.0016 1.66895C7.73879 1.66895 7.45556 1.67874 6.56669 1.71778C5.68112 1.75683 5.0723 1.90016 4.54488 2.10518C3.98477 2.31681 3.48342 2.64239 3.06664 3.06896C2.64338 3.48574 2.31462 3.9904 2.10617 4.54389C1.90102 5.07462 1.75782 5.68013 1.71877 6.5657C1.67642 7.45788 1.66663 7.74111 1.66663 10.0039C1.66663 12.2668 1.67642 12.55 1.71546 13.4389C1.75451 14.3244 1.89784 14.9332 2.10299 15.4608C2.31462 16.0208 2.64338 16.5221 3.06664 16.9389C3.48342 17.3622 3.98808 17.6911 4.54157 17.8994C5.0723 18.1045 5.67781 18.2477 6.56351 18.2868C7.45225 18.3259 7.73562 18.3356 9.99843 18.3356C12.2613 18.3356 12.5445 18.3259 13.4334 18.2868C14.3189 18.2477 14.9277 18.1045 15.4552 17.8994C16.5753 17.4663 17.4608 16.5808 17.8939 15.4608C18.0989 14.9301 18.2422 14.3244 18.2813 13.4389C18.3203 12.55 18.3301 12.2668 18.3301 10.0039C18.3301 7.74111 18.3268 7.45788 18.2878 6.56901ZM16.7869 13.3737C16.751 14.1877 16.6143 14.6272 16.5003 14.9203C16.2203 15.6464 15.644 16.2226 14.918 16.5027C14.6249 16.6166 14.1822 16.7533 13.3714 16.7891C12.4923 16.8283 12.2287 16.8379 10.0049 16.8379C7.78115 16.8379 7.51419 16.8283 6.63829 16.7891C5.82433 16.7533 5.38479 16.6166 5.09176 16.5027C4.73044 16.3691 4.40154 16.1575 4.13459 15.8808C3.85784 15.6105 3.64621 15.2849 3.51267 14.9236C3.39872 14.6306 3.26199 14.1877 3.22626 13.377C3.18708 12.498 3.17742 12.2342 3.17742 10.0104C3.17742 7.78664 3.18708 7.51969 3.22626 6.64392C3.26199 5.82995 3.39872 5.39041 3.51267 5.09739C3.64621 4.73593 3.85784 4.40717 4.1379 4.14009C4.40803 3.86334 4.73362 3.65171 5.09507 3.5183C5.38809 3.40434 5.83094 3.26762 6.6416 3.23176C7.52068 3.19271 7.78445 3.18292 10.0081 3.18292C12.2352 3.18292 12.4988 3.19271 13.3747 3.23176C14.1887 3.26762 14.6282 3.40434 14.9213 3.5183C15.2826 3.65171 15.6115 3.86334 15.8784 4.14009C16.1552 4.41035 16.3668 4.73593 16.5003 5.09739C16.6143 5.39041 16.751 5.83313 16.7869 6.64392C16.8259 7.523 16.8357 7.78664 16.8357 10.0104C16.8357 12.2342 16.8259 12.4947 16.7869 13.3737Z" fill="white"/>
<path d="M10.0019 5.72266C7.63823 5.72266 5.72046 7.6403 5.72046 10.0041C5.72046 12.3679 7.63823 14.2856 10.0019 14.2856C12.3657 14.2856 14.2834 12.3679 14.2834 10.0041C14.2834 7.6403 12.3657 5.72266 10.0019 5.72266ZM10.0019 12.7814C8.46848 12.7814 7.22464 11.5377 7.22464 10.0041C7.22464 8.47055 8.46848 7.22684 10.0019 7.22684C11.5355 7.22684 12.7792 8.47055 12.7792 10.0041C12.7792 11.5377 11.5355 12.7814 10.0019 12.7814Z" fill="white"/>
<path d="M15.4522 5.55323C15.4522 6.1052 15.0046 6.55275 14.4525 6.55275C13.9006 6.55275 13.453 6.1052 13.453 5.55323C13.453 5.00114 13.9006 4.55371 14.4525 4.55371C15.0046 4.55371 15.4522 5.00114 15.4522 5.55323Z" fill="white"/>
</svg>
