<svg width="20" height="20" viewBox="0 0 20 20" fill="none" xmlns="http://www.w3.org/2000/svg">
<path d="M18.3291 18.3348L18.3333 18.3341V12.2215C18.3333 9.23123 17.6895 6.92773 14.1937 6.92773C12.5131 6.92773 11.3853 7.84997 10.9249 8.72428H10.8763V7.2069H7.56165V18.3341H11.0131V12.8243C11.0131 11.3736 11.2881 9.97082 13.0846 9.97082C14.8548 9.97082 14.8812 11.6264 14.8812 12.9174V18.3348H18.3291Z" fill="white"/>
<path d="M1.94092 7.20801H5.39651V18.3352H1.94092V7.20801Z" fill="white"/>
<path d="M3.66804 1.66895C2.56316 1.66895 1.66663 2.56548 1.66663 3.67036C1.66663 4.77523 2.56316 5.69052 3.66804 5.69052C4.77291 5.69052 5.66945 4.77523 5.66945 3.67036C5.66875 2.56548 4.77221 1.66895 3.66804 1.66895Z" fill="white"/>
</svg>
