<svg xmlns="http://www.w3.org/2000/svg" width="40" height="34" viewBox="0 0 40 34" fill="none">
  <path d="M22.328 34V31.8143C27.9365 28.1714 31.3228 23.4357 32.6984 17.7286C31.3228 18.8214 29.9471 19.3071 28.7831 19.3071C26.8783 19.3071 25.1852 18.4571 23.9153 16.6357C22.5397 14.8143 21.9048 12.6286 21.9048 10.0786C21.9048 7.16429 22.7513 4.85714 24.5503 2.91428C26.3492 0.971426 28.4656 0 31.0053 0C33.545 0 35.6614 1.21428 37.4603 3.76428C39.1534 6.19286 40 9.35 40 12.9929C40 18.2143 38.3069 22.8286 34.8148 26.9571C31.4286 31.0857 27.1958 33.3929 22.328 34ZM0.423282 34V31.8143C6.03175 28.1714 9.41799 23.4357 10.7936 17.7286C9.41799 18.8214 8.04233 19.3071 6.87831 19.3071C4.97355 19.3071 3.38625 18.4571 2.01058 16.6357C0.634922 14.8143 0 12.6286 0 10.0786C0 7.16429 0.846561 4.85714 2.6455 2.91428C4.33862 0.971426 6.56085 0 9.10053 0C11.6402 0 13.8624 1.21428 15.5556 3.76428C17.2487 6.19286 18.0952 9.35 18.0952 12.9929C18.0952 18.2143 16.4021 22.8286 12.9101 26.9571C9.41799 31.0857 5.29101 33.3929 0.423282 34Z" fill="#212523"/>
</svg>