
<svg xmlns="http://www.w3.org/2000/svg" width="56" height="56" viewBox="0 0 56 56" fill="none">
  <path d="M31.0282 48.7952C33.302 45.9314 34.6595 42.312 34.6595 38.3765C34.6595 29.0965 27.1112 21.5735 17.8 21.5735C8.48868 21.5735 0.940491 29.0965 0.940491 38.3765C0.940491 47.6567 8.48879 55.1796 17.8 55.1796C21.6337 55.1796 25.1685 53.9043 28.0007 51.7562M24.9726 48.7955C22.9312 50.1958 20.4599 51.0162 17.7999 51.0162C10.8069 51.0162 5.11774 45.3461 5.11774 38.3765C5.11774 31.407 10.8069 25.7368 17.7999 25.7368C24.7929 25.7368 30.4821 31.407 30.4821 38.3765C30.4821 41.1833 29.5594 43.7793 28.0005 45.8791" stroke="white" stroke-width="1.5" stroke-miterlimit="10" stroke-linecap="round" stroke-linejoin="round"/>
  <path d="M24.9721 27.9582C22.9308 26.5579 20.4599 25.7368 17.7999 25.7368C10.8069 25.7368 5.11774 31.4069 5.11774 38.3765C5.11774 45.3461 10.8069 51.0162 17.7999 51.0162C20.4599 51.0162 22.9308 50.1951 24.9721 48.7948C22.6983 45.9311 21.3405 42.3119 21.3405 38.3765C21.3405 34.4411 22.6985 30.822 24.9721 27.9582Z" stroke="white" stroke-width="1.5" stroke-miterlimit="10"/>
  <path d="M31.0278 48.7948C33.0692 50.1951 35.5401 51.0162 38.2001 51.0162C45.1931 51.0162 50.8823 45.3461 50.8823 38.3765C50.8823 31.4069 45.1931 25.7368 38.2001 25.7368C35.5401 25.7368 33.0692 26.5579 31.0278 27.9582C33.3016 30.822 34.6595 34.4411 34.6595 38.3765C34.6595 42.3119 33.3015 45.9311 31.0278 48.7948Z" stroke="white" stroke-width="1.5" stroke-miterlimit="10"/>
  <path d="M50.529 49.8359C53.3391 46.8341 55.0595 42.8058 55.0595 38.3765C55.0595 29.0965 47.5112 21.5735 38.2 21.5735C34.3663 21.5735 30.8322 22.8497 28 24.9978C29.1295 25.8545 30.1474 26.8495 31.0277 27.9583C33.069 26.5579 35.5399 25.7368 38.1999 25.7368C45.1929 25.7368 50.8822 31.407 50.8822 38.3765C50.8822 45.3461 45.1929 51.0162 38.1999 51.0162C35.5399 51.0162 33.069 50.1952 31.0277 48.7948C29.8637 47.9964 28.8395 47.0096 27.9998 45.8788C26.4409 43.779 25.5178 41.1833 25.5178 38.3765C25.5178 35.5698 26.4409 32.9742 27.9998 30.8744C27.1602 29.7435 26.136 28.7568 24.972 27.9583C22.6982 30.822 21.3403 34.4411 21.3403 38.3765C21.3403 42.312 22.6982 45.9312 24.972 48.7948C25.8524 49.9037 26.8703 50.8987 27.9998 51.7553C30.832 53.9034 34.3662 55.1796 38.1999 55.1796C41.8946 55.1796 45.311 53.9942 48.0891 51.9855" stroke="white" stroke-width="1.5" stroke-miterlimit="10" stroke-linecap="round" stroke-linejoin="round"/>
  <path d="M19.3698 6.42106C19.113 6.98686 18.9687 7.61445 18.9687 8.27595C18.9687 13.157 28 19.0635 28 19.0635C28 19.0635 37.0313 13.157 37.0313 8.27595C37.0313 5.78865 35.0096 3.77222 32.5157 3.77222C30.0217 3.77233 28 5.78865 28 8.27595C28 5.78865 25.9783 3.77222 23.4843 3.77222C22.8385 3.77222 22.2248 3.90839 21.6692 4.15208" stroke="white" stroke-width="1.5" stroke-miterlimit="10" stroke-linecap="round" stroke-linejoin="round"/>
  <path d="M14.4109 0.820312L16.1285 1.80939" stroke="white" stroke-width="1.5" stroke-miterlimit="10" stroke-linecap="round" stroke-linejoin="round"/>
  <path d="M12.3086 8.64526H14.292" stroke="white" stroke-width="1.5" stroke-miterlimit="10" stroke-linecap="round" stroke-linejoin="round"/>
  <path d="M14.4109 16.47L16.1285 15.481" stroke="white" stroke-width="1.5" stroke-miterlimit="10" stroke-linecap="round" stroke-linejoin="round"/>
  <path d="M41.589 16.4703L39.8714 15.4812" stroke="white" stroke-width="1.5" stroke-miterlimit="10" stroke-linecap="round" stroke-linejoin="round"/>
  <path d="M43.6914 8.64526H41.7079" stroke="white" stroke-width="1.5" stroke-miterlimit="10" stroke-linecap="round" stroke-linejoin="round"/>
  <path d="M41.589 0.820312L39.8714 1.80939" stroke="white" stroke-width="1.5" stroke-miterlimit="10" stroke-linecap="round" stroke-linejoin="round"/>
</svg>