<svg xmlns="http://www.w3.org/2000/svg" width="56" height="56" viewBox="0 0 56 56" fill="none">
  <path d="M30.7008 40.5955C33.3352 37.3661 40.1535 28 40.1535 18.4982C40.1535 8.73491 34.7122 0.820312 28 0.820312C21.2877 0.820312 15.8464 8.73491 15.8464 18.4982C15.8464 28 22.6648 37.3661 25.2992 40.5955H30.7008Z" stroke="white" stroke-width="1.5" stroke-miterlimit="10" stroke-linecap="round" stroke-linejoin="round"/>
  <path d="M29.105 40.5955C30.1826 37.3661 32.972 28 32.972 18.4982C32.9719 8.73491 30.7459 0.820312 28.0001 0.820312C25.2542 0.820312 23.0282 8.73491 23.0282 18.4982C23.0282 28 25.8175 37.3661 26.8953 40.5955H29.105Z" stroke="white" stroke-width="1.5" stroke-miterlimit="10" stroke-linecap="round" stroke-linejoin="round"/>
  <path d="M23.5804 49.8762H32.4194V53.4118C32.4194 54.388 31.6279 55.1796 30.6515 55.1796H25.3482C24.3719 55.1796 23.5803 54.3882 23.5803 53.4118V49.8762H23.5804Z" stroke="white" stroke-width="1.5" stroke-miterlimit="10" stroke-linecap="round" stroke-linejoin="round"/>
  <path d="M22.4757 49.8762H33.5243" stroke="white" stroke-width="1.5" stroke-miterlimit="10" stroke-linecap="round" stroke-linejoin="round"/>
  <path d="M43.1988 9.46531C44.7738 12.1089 45.6783 15.1987 45.6783 18.4986C45.6783 28 35.7602 37.3658 31.9288 40.5956H24.0713C20.2399 37.3658 10.3218 28 10.3218 18.4986C10.3218 8.73469 18.2372 0.820312 28.0001 0.820312C33.0882 0.820312 37.6743 2.97063 40.8997 6.41156" stroke="white" stroke-width="1.5" stroke-miterlimit="10" stroke-linecap="round" stroke-linejoin="round"/>
  <path d="M32.9719 18.2219C32.9719 20.9678 30.7459 23.1938 28.0001 23.1938C25.2542 23.1938 23.0282 20.9678 23.0282 18.2219" stroke="white" stroke-width="1.5" stroke-miterlimit="10" stroke-linecap="round" stroke-linejoin="round"/>
  <path d="M40.1535 18.2219C40.1535 20.9678 38.5458 23.1938 36.5627 23.1938C34.5795 23.1938 32.9719 20.9678 32.9719 18.2219" stroke="white" stroke-width="1.5" stroke-miterlimit="10" stroke-linecap="round" stroke-linejoin="round"/>
  <path d="M45.6779 18.2219C45.6779 20.9678 44.4412 23.1938 42.9157 23.1938C41.3903 23.1938 40.1536 20.9678 40.1536 18.2219" stroke="white" stroke-width="1.5" stroke-miterlimit="10" stroke-linecap="round" stroke-linejoin="round"/>
  <path d="M15.8464 18.2219C15.8464 20.9678 17.4541 23.1938 19.4372 23.1938C21.4203 23.1938 23.028 20.9678 23.028 18.2219" stroke="white" stroke-width="1.5" stroke-miterlimit="10" stroke-linecap="round" stroke-linejoin="round"/>
  <path d="M10.3221 18.2219C10.3221 20.9678 11.5588 23.1938 13.0843 23.1938C14.6098 23.1938 15.8465 20.9678 15.8465 18.2219" stroke="white" stroke-width="1.5" stroke-miterlimit="10" stroke-linecap="round" stroke-linejoin="round"/>
  <path d="M30.8235 40.5955V49.8763" stroke="white" stroke-width="1.5" stroke-miterlimit="10" stroke-linecap="round" stroke-linejoin="round"/>
  <path d="M25.1765 40.5955V49.8763" stroke="white" stroke-width="1.5" stroke-miterlimit="10" stroke-linecap="round" stroke-linejoin="round"/>
  <path d="M11.573 44.7146C12.2763 44.7146 12.7991 44.7146 12.9741 44.7146C14.8039 44.7146 16.2881 43.2304 16.2881 41.3995C16.2881 39.6604 14.9494 38.2353 13.2464 38.0975C12.5672 36.1604 10.7231 34.7703 8.55422 34.7703C6.82609 34.7703 5.30469 35.6529 4.41328 36.9906C2.40516 37.1317 0.820312 38.804 0.820312 40.8471C0.820312 42.9832 2.55172 44.7146 4.68781 44.7146C4.9525 44.7146 6.24969 44.7146 7.74484 44.7146" stroke="white" stroke-width="1.5" stroke-miterlimit="10" stroke-linecap="round" stroke-linejoin="round"/>
  <path d="M48.9887 46.7959C48.3095 44.8587 46.4659 43.4692 44.2968 43.4692C42.5685 43.4692 41.0468 44.3515 40.1558 45.6897C38.1481 45.8303 36.5627 47.5024 36.5627 49.546C36.5627 51.6818 38.294 53.4131 40.4298 53.4131C41.0822 53.4131 47.9795 53.4131 48.7163 53.4131C50.5469 53.4131 52.0309 51.9291 52.0309 50.0985C52.0308 48.3597 50.6917 46.9347 48.9887 46.7959Z" stroke="white" stroke-width="1.5" stroke-miterlimit="10" stroke-linecap="round" stroke-linejoin="round"/>
  <path d="M51.5156 38.5875C52.0778 38.5875 52.4967 38.5875 52.6345 38.5875C54.04 38.5875 55.1797 37.4478 55.1797 36.0423C55.1797 34.708 54.1515 33.6142 52.8445 33.507C52.3228 32.0206 50.9075 30.9531 49.2417 30.9531C47.915 30.9531 46.7468 31.6312 46.0632 32.6583C44.5222 32.7666 43.3048 34.0495 43.3048 35.6191C43.3048 37.2586 44.6337 38.5875 46.2732 38.5875C46.4187 38.5875 46.9678 38.5875 47.6875 38.5875" stroke="white" stroke-width="1.5" stroke-miterlimit="10" stroke-linecap="round" stroke-linejoin="round"/>
</svg>