<svg xmlns="http://www.w3.org/2000/svg" width="56" height="56" viewBox="0 0 56 56" fill="none">
  <path d="M26.6328 6.01541H29.3671M16.789 6.01541H19.5233M46.3203 6.01541H48.3438C51.9532 6.01541 54.9062 8.96864 54.9062 12.5779V48.3438C54.9062 51.9529 51.953 54.9062 48.3438 54.9062H7.65613C4.04686 54.9062 1.09363 51.9531 1.09363 48.3438V12.5779C1.09363 8.96853 4.04675 6.01541 7.65613 6.01541H9.67956M36.4765 6.01541H39.2108" stroke="white" stroke-width="1.5" stroke-miterlimit="22.926" stroke-linecap="round" stroke-linejoin="round"/>
  <path d="M24.4998 15.8592H7.65607C6.76346 15.8592 6.01544 16.6072 6.01544 17.4998V48.3437C6.01544 49.2364 6.76357 49.9844 7.65607 49.9844H48.3438C49.2363 49.9844 49.9844 49.2362 49.9844 48.3437V17.4998C49.9844 16.6072 49.2364 15.8592 48.3438 15.8592H23.0781" stroke="white" stroke-width="1.5" stroke-miterlimit="22.926" stroke-linecap="round" stroke-linejoin="round"/>
  <path d="M32.9219 1.09351C34.2754 1.09351 35.3828 2.20093 35.3828 3.55444V8.47632C35.3828 9.82983 34.2754 10.9373 32.9219 10.9373C31.5682 10.9373 30.4609 9.82983 30.4609 8.47632V3.55444C30.4609 2.20093 31.5682 1.09351 32.9219 1.09351Z" stroke="white" stroke-width="1.5" stroke-miterlimit="22.926" stroke-linecap="round" stroke-linejoin="round"/>
  <path d="M23.0781 1.09351C24.4316 1.09351 25.539 2.20093 25.539 3.55444V8.47632C25.539 9.82983 24.4316 10.9373 23.0781 10.9373C21.7245 10.9373 20.6171 9.82983 20.6171 8.47632V3.55444C20.6171 2.20093 21.7245 1.09351 23.0781 1.09351Z" stroke="white" stroke-width="1.5" stroke-miterlimit="22.926" stroke-linecap="round" stroke-linejoin="round"/>
  <path d="M13.2343 1.09351C14.5878 1.09351 15.6953 2.20093 15.6953 3.55444V8.47632C15.6953 9.82983 14.5878 10.9373 13.2343 10.9373C11.8808 10.9373 10.7734 9.82983 10.7734 8.47632V3.55444C10.7734 2.20093 11.8808 1.09351 13.2343 1.09351Z" stroke="white" stroke-width="1.5" stroke-miterlimit="22.926" stroke-linecap="round" stroke-linejoin="round"/>
  <path d="M42.7656 1.09351C44.1191 1.09351 45.2266 2.20093 45.2266 3.55444V8.47632C45.2266 9.82983 44.1191 10.9373 42.7656 10.9373C41.412 10.9373 40.3047 9.82983 40.3047 8.47632V3.55444C40.3047 2.20093 41.412 1.09351 42.7656 1.09351Z" stroke="white" stroke-width="1.5" stroke-miterlimit="22.926" stroke-linecap="round" stroke-linejoin="round"/>
  <path d="M31.2275 29.1982L36.3918 30.1603C37.1339 30.2973 37.3971 31.2013 36.8902 31.7213L33.3226 35.4085L34.0039 40.6207C34.1028 41.3791 33.2972 41.9135 32.6408 41.557L28.0666 39.3204L23.3153 41.5813C22.6511 41.8961 21.8884 41.3449 22.0003 40.5969L22.7177 35.5287L19.1044 31.714C18.5889 31.1711 18.8964 30.2818 19.6175 30.1565L24.6746 29.2699L27.1858 24.655C27.5424 24.0003 28.4826 24.0173 28.8235 24.6659L31.2275 29.1982Z" stroke="white" stroke-width="1.5" stroke-miterlimit="22.926" stroke-linecap="round" stroke-linejoin="round"/>
</svg>