<svg xmlns="http://www.w3.org/2000/svg" width="49" height="49" viewBox="0 0 49 49" fill="none">
  <path d="M0.703125 23.4531L4.77528 36.6649L3.41787 47.2969" stroke="white" stroke-width="1.5" stroke-miterlimit="10" stroke-linecap="round" stroke-linejoin="round"/>
  <path d="M4.77527 36.6648H16.0103L18.2767 47.2968" stroke="white" stroke-width="1.5" stroke-miterlimit="10" stroke-linecap="round" stroke-linejoin="round"/>
  <path d="M2.96558 30.7935H9.98379C11.4052 30.7935 12.5575 31.9457 12.5575 33.3672V36.6648" stroke="white" stroke-width="1.5" stroke-miterlimit="10" stroke-linecap="round" stroke-linejoin="round"/>
  <path d="M17.3877 29.8123H30.7062" stroke="white" stroke-width="1.5" stroke-miterlimit="10" stroke-linecap="round" stroke-linejoin="round"/>
  <path d="M4.46533 42.8635H16.9401" stroke="white" stroke-width="1.5" stroke-miterlimit="10" stroke-linecap="round" stroke-linejoin="round"/>
  <path d="M47.2969 23.4531L43.2247 36.6649L44.5821 47.2969" stroke="white" stroke-width="1.5" stroke-miterlimit="10" stroke-linecap="round" stroke-linejoin="round"/>
  <path d="M43.2247 36.6648H31.9897L29.7233 47.2968" stroke="white" stroke-width="1.5" stroke-miterlimit="10" stroke-linecap="round" stroke-linejoin="round"/>
  <path d="M45.0344 30.7935H38.0162C36.5948 30.7935 35.4425 31.9457 35.4425 33.3672V36.6648" stroke="white" stroke-width="1.5" stroke-miterlimit="10" stroke-linecap="round" stroke-linejoin="round"/>
  <path d="M43.5347 42.8635H31.0599" stroke="white" stroke-width="1.5" stroke-miterlimit="10" stroke-linecap="round" stroke-linejoin="round"/>
  <path d="M32.2356 36.6648V36.1456C32.2356 34.7919 33.3329 33.6946 34.6866 33.6946H40.5867C40.8516 33.6946 41.0854 33.522 41.1634 33.269L43.5617 25.4877C43.9604 24.1942 45.3323 23.4687 46.626 23.8674L47.1222 24.0204L43.2247 36.6648H32.2356Z" stroke="white" stroke-width="1.5" stroke-miterlimit="10" stroke-linecap="round" stroke-linejoin="round"/>
  <path d="M28.4093 29.906C28.4093 29.906 25.2687 31.406 25.2687 37.1717V44.0624L27.4249 47.2968" stroke="white" stroke-width="1.5" stroke-miterlimit="10" stroke-linecap="round" stroke-linejoin="round"/>
  <path d="M19.5341 29.906C19.5341 29.906 22.6747 31.406 22.6747 37.1717V44.0624L20.5184 47.2968" stroke="white" stroke-width="1.5" stroke-miterlimit="10" stroke-linecap="round" stroke-linejoin="round"/>
  <path d="M25.2688 37.1719H22.6748V44.0625H25.2688V37.1719Z" stroke="white" stroke-width="1.5" stroke-miterlimit="10" stroke-linecap="round" stroke-linejoin="round"/>
  <path d="M24 1.875V0.703125" stroke="white" stroke-width="1.5" stroke-miterlimit="10" stroke-linecap="round" stroke-linejoin="round"/>
  <path d="M24 15.8438V14.6719" stroke="white" stroke-width="1.5" stroke-miterlimit="10" stroke-linecap="round" stroke-linejoin="round"/>
  <path d="M19.4756 3.74907L18.647 2.92041" stroke="white" stroke-width="1.5" stroke-miterlimit="10" stroke-linecap="round" stroke-linejoin="round"/>
  <path d="M29.3531 13.6265L28.5244 12.7979" stroke="white" stroke-width="1.5" stroke-miterlimit="10" stroke-linecap="round" stroke-linejoin="round"/>
  <path d="M17.6014 8.27344H16.4296" stroke="white" stroke-width="1.5" stroke-miterlimit="10" stroke-linecap="round" stroke-linejoin="round"/>
  <path d="M31.5703 8.27344H30.3984" stroke="white" stroke-width="1.5" stroke-miterlimit="10" stroke-linecap="round" stroke-linejoin="round"/>
  <path d="M19.4756 12.7979L18.647 13.6265" stroke="white" stroke-width="1.5" stroke-miterlimit="10" stroke-linecap="round" stroke-linejoin="round"/>
  <path d="M29.3531 2.92041L28.5244 3.74907" stroke="white" stroke-width="1.5" stroke-miterlimit="10" stroke-linecap="round" stroke-linejoin="round"/>
  <path d="M5.58919 29.2216L4.43839 25.4877C4.03967 24.1942 2.66782 23.4687 1.37415 23.8674L0.87793 24.0204L4.77524 36.6648H15.7643V36.1456C15.7643 34.7919 14.667 33.6946 13.3133 33.6946H7.41329C7.14845 33.6946 6.91463 33.522 6.83663 33.269L5.58919 29.2216Z" stroke="white" stroke-width="1.5" stroke-miterlimit="10" stroke-linecap="round" stroke-linejoin="round"/>
  <path d="M27.4042 6.51818C26.7675 5.28602 25.4826 4.44312 24 4.44312C21.8844 4.44312 20.1694 6.15808 20.1694 8.27365C20.1694 10.3892 21.8844 12.1042 24 12.1042C25.573 12.1042 26.9239 11.1556 27.5137 9.79952" stroke="white" stroke-width="1.5" stroke-miterlimit="10" stroke-linecap="round" stroke-linejoin="round"/>
</svg>