<svg xmlns="http://www.w3.org/2000/svg" width="20" height="20" viewBox="0 0 20 20" fill="none">
  <g clip-path="url(#clip0_341_270)">
    <path d="M11.1424 0.703046C10.9316 0.273407 10.4862 0 9.99708 0C9.50793 0 9.0665 0.273407 8.85175 0.703046L6.29464 5.87044L0.583886 6.69847C0.106664 6.76877 -0.29102 7.09686 -0.438164 7.54603C-0.585307 7.9952 -0.466002 8.49124 -0.123993 8.82323L4.01988 12.8501L3.04158 18.5409C2.96204 19.0096 3.16088 19.4861 3.55459 19.7634C3.9483 20.0407 4.46926 20.0759 4.89876 19.8532L10.0011 17.1778L15.1034 19.8532C15.5329 20.0759 16.0538 20.0446 16.4475 19.7634C16.8412 19.4822 17.0401 19.0096 16.9605 18.5409L15.9783 12.8501L20.1221 8.82323C20.4641 8.49124 20.5874 7.9952 20.4363 7.54603C20.2852 7.09686 19.8915 6.76877 19.4143 6.69847L13.6995 5.87044L11.1424 0.703046Z" fill="#E49929"/>
  </g>
  <defs>
    <clipPath id="clip0_341_270">
      <rect width="20" height="20" fill="white"/>
    </clipPath>
  </defs>
</svg>