<svg xmlns="http://www.w3.org/2000/svg" width="100" height="100" viewBox="0 0 100 100" fill="none">
  <path d="M50 0L53.0598 28.7188L64.0866 2.02535L58.9314 30.4429L77.032 7.93732L64.0795 33.7514L87.7875 17.257L68.087 38.3762L95.4816 29.2292L70.6291 43.9427L99.4911 42.8843L71.5 50L99.4911 57.1157L70.6291 56.0573L95.4816 70.7708L68.087 61.6238L87.7875 82.743L64.0795 66.2486L77.032 92.0627L58.9314 69.5571L64.0866 97.9746L53.0598 71.2812L50 100L46.9402 71.2812L35.9134 97.9746L41.0686 69.5571L22.968 92.0627L35.9205 66.2486L12.2125 82.743L31.913 61.6238L4.5184 70.7708L29.3709 56.0573L0.508926 57.1157L28.5 50L0.508926 42.8843L29.3709 43.9427L4.5184 29.2292L31.913 38.3762L12.2125 17.257L35.9205 33.7514L22.968 7.93732L41.0686 30.4429L35.9134 2.02535L46.9402 28.7188L50 0Z" fill="#AC937A"/>
</svg>