<svg width="80" height="80" viewBox="0 0 80 80" fill="none" xmlns="http://www.w3.org/2000/svg">
<g clip-path="url(#clip0_341_1029)">
<path d="M34.835 10.4132C34.835 12.2251 33.3661 13.694 31.5542 13.694C29.7423 13.694 28.2734 12.2251 28.2734 10.4132C28.2734 9.17693 29.8006 6.73568 30.7711 5.30928C31.1469 4.75693 31.9616 4.75693 32.3373 5.30928C33.3078 6.73568 34.835 9.17693 34.835 10.4132Z" stroke="white" stroke-width="2" stroke-miterlimit="10" stroke-linecap="round" stroke-linejoin="round"/>
<path d="M28.7178 25.0858V19.8369C28.7178 18.4401 29.8501 17.3076 31.2471 17.3076H31.8626C33.2595 17.3076 34.392 18.4399 34.392 19.8369V24.9355" stroke="white" stroke-width="2" stroke-miterlimit="10" stroke-linecap="round" stroke-linejoin="round"/>
<path d="M31.5547 16.9952V14.2396" stroke="white" stroke-width="2" stroke-miterlimit="10" stroke-linecap="round" stroke-linejoin="round"/>
<path d="M47.7803 10.4132C47.7803 12.2251 46.3114 13.694 44.4995 13.694C42.6877 13.694 41.2188 12.2251 41.2188 10.4132C41.2188 9.17693 42.7459 6.73568 43.7164 5.30928C44.0922 4.75693 44.9069 4.75693 45.2827 5.30928C46.2531 6.73568 47.7803 9.17693 47.7803 10.4132Z" stroke="white" stroke-width="2" stroke-miterlimit="10" stroke-linecap="round" stroke-linejoin="round"/>
<path d="M41.6631 25.0858V19.8369C41.6631 18.4401 42.7954 17.3076 44.1925 17.3076H44.8079C46.2048 17.3076 47.3373 18.4399 47.3373 19.8369V24.6935" stroke="white" stroke-width="2" stroke-miterlimit="10" stroke-linecap="round" stroke-linejoin="round"/>
<path d="M44.5 16.9952V14.2396" stroke="white" stroke-width="2" stroke-miterlimit="10" stroke-linecap="round" stroke-linejoin="round"/>
<path d="M60.7266 10.4132C60.7266 12.2251 59.2577 13.694 57.4458 13.694C55.6339 13.694 54.165 12.2251 54.165 10.4132C54.165 9.17693 55.6922 6.73568 56.6627 5.30928C57.0385 4.75693 57.8532 4.75693 58.2289 5.30928C59.1994 6.73568 60.7266 9.17693 60.7266 10.4132Z" stroke="white" stroke-width="2" stroke-miterlimit="10" stroke-linecap="round" stroke-linejoin="round"/>
<path d="M54.6084 25.0858V19.8369C54.6084 18.4401 55.7407 17.3076 57.1378 17.3076H57.7532C59.1501 17.3076 60.2826 18.4399 60.2826 19.8369V24.8855" stroke="white" stroke-width="2" stroke-miterlimit="10" stroke-linecap="round" stroke-linejoin="round"/>
<path d="M57.4453 16.9952V14.2396" stroke="white" stroke-width="2" stroke-miterlimit="10" stroke-linecap="round" stroke-linejoin="round"/>
<path d="M25.1562 51.6716H78.0587" stroke="white" stroke-width="2" stroke-miterlimit="10" stroke-linecap="round" stroke-linejoin="round"/>
<path d="M10.9414 51.6716H19.5305" stroke="white" stroke-width="2" stroke-miterlimit="10" stroke-linecap="round" stroke-linejoin="round"/>
<path d="M10.9414 58.9167H78.058" stroke="white" stroke-width="2" stroke-miterlimit="10" stroke-linecap="round" stroke-linejoin="round"/>
<path d="M56.9472 75.1052H10.3439C7.76359 75.1052 5.67188 73.0135 5.67188 70.4332V69.4519C5.67188 68.7819 6.215 68.2386 6.88516 68.2386H82.115C82.785 68.2386 83.3283 68.7818 83.3283 69.4519V70.4332C83.3283 73.0135 81.2366 75.1052 78.6563 75.1052H62.4159" stroke="white" stroke-width="2" stroke-miterlimit="10" stroke-linecap="round" stroke-linejoin="round"/>
<path d="M78.058 68.2387H10.9414V48.7613C10.9414 45.7265 13.4017 43.2662 16.4366 43.2662H72.5631C75.598 43.2662 78.0583 45.7265 78.0583 48.7613V68.2387H78.058Z" stroke="white" stroke-width="2" stroke-miterlimit="10" stroke-linecap="round" stroke-linejoin="round"/>
<path d="M62.6181 25.3578H26.3819C23.347 25.3578 20.8867 27.8182 20.8867 30.853V43.2663H68.1133V30.853C68.1133 27.818 65.653 25.3578 62.6181 25.3578Z" stroke="white" stroke-width="2" stroke-miterlimit="10" stroke-linecap="round" stroke-linejoin="round"/>
<path d="M28.0215 33.252V36.0521" stroke="white" stroke-width="2" stroke-miterlimit="10" stroke-linecap="round" stroke-linejoin="round"/>
<path d="M36.2607 33.252V36.0521" stroke="white" stroke-width="2" stroke-miterlimit="10" stroke-linecap="round" stroke-linejoin="round"/>
<path d="M44.5 33.252V36.0521" stroke="white" stroke-width="2" stroke-miterlimit="10" stroke-linecap="round" stroke-linejoin="round"/>
<path d="M52.7393 33.252V36.0521" stroke="white" stroke-width="2" stroke-miterlimit="10" stroke-linecap="round" stroke-linejoin="round"/>
<path d="M60.9785 33.252V36.0521" stroke="white" stroke-width="2" stroke-miterlimit="10" stroke-linecap="round" stroke-linejoin="round"/>
</g>
<defs>
<clipPath id="clip0_341_1029">
<rect width="80" height="80" fill="white"/>
</clipPath>
</defs>
</svg>
