<svg width="80" height="80" viewBox="0 0 80 80" fill="none" xmlns="http://www.w3.org/2000/svg">
<path d="M10.5469 70.8132V42.6882M10.5469 33.3133V30.9696C10.5469 29.6804 9.49234 28.6257 8.20312 28.6257C6.91406 28.6257 5.85938 29.6805 5.85938 30.9696V33.3133M5.85953 42.6882V70.8132" stroke="white" stroke-width="2" stroke-miterlimit="22.9256"/>
<path d="M5.85938 38.0007C4.57031 38.0007 3.51562 36.946 3.51562 35.6569C3.51562 34.3679 4.57031 33.3132 5.85938 33.3132H10.5469C11.8359 33.3132 12.8906 34.3679 12.8906 35.6569C12.8906 36.946 11.8359 38.0007 10.5469 38.0007" stroke="white" stroke-width="2" stroke-miterlimit="22.9256"/>
<path fill-rule="evenodd" clip-rule="evenodd" d="M5.85938 38.0007H10.5469C11.8359 38.0007 12.8906 39.0554 12.8906 40.3444C12.8906 41.6335 11.8359 42.6882 10.5469 42.6882H5.85938C4.57031 42.6882 3.51562 41.6335 3.51562 40.3444C3.51562 39.0554 4.57031 38.0007 5.85938 38.0007Z" stroke="white" stroke-width="2" stroke-miterlimit="22.9256"/>
<path d="M12.8302 24.6893C13.2449 22.1339 11.5095 19.7261 8.9541 19.3113C6.39866 18.8966 3.99086 20.632 3.57613 23.1874C3.1614 25.7429 4.89679 28.1507 7.45223 28.5654C10.0077 28.9801 12.4155 27.2447 12.8302 24.6893Z" stroke="white" stroke-width="2" stroke-miterlimit="22.9256"/>
<path d="M15.2342 75.4749V73.1311C15.2342 71.842 14.1791 70.7874 12.8905 70.7874H3.51562C2.22703 70.7874 1.17188 71.8427 1.17188 73.1311V75.4749H70.625M72.9688 75.4749H78.8281V73.1311C78.8281 71.842 77.773 70.7874 76.4844 70.7874H67.1095C65.8209 70.7874 64.7658 71.8427 64.7658 73.1311V75.4749" stroke="white" stroke-width="2" stroke-miterlimit="22.9256"/>
<path d="M74.1406 70.8132V42.6882M74.1406 33.3133V30.9696C74.1406 29.6804 73.0861 28.6257 71.7969 28.6257C70.5078 28.6257 69.4531 29.6805 69.4531 30.9696V33.3133M69.4531 42.6882V70.8132" stroke="white" stroke-width="2" stroke-miterlimit="22.9256"/>
<path d="M69.4531 38.0007C68.1641 38.0007 67.1094 36.946 67.1094 35.6569C67.1094 34.3679 68.1641 33.3132 69.4531 33.3132H74.1406C75.4297 33.3132 76.4844 34.3679 76.4844 35.6569C76.4844 36.946 75.4297 38.0007 74.1406 38.0007" stroke="white" stroke-width="2" stroke-miterlimit="22.9256"/>
<path fill-rule="evenodd" clip-rule="evenodd" d="M69.4531 38.0007H74.1406C75.4297 38.0007 76.4844 39.0554 76.4844 40.3444C76.4844 41.6335 75.4297 42.6882 74.1406 42.6882H69.4531C68.1641 42.6882 67.1094 41.6335 67.1094 40.3444C67.1095 39.0554 68.1641 38.0007 69.4531 38.0007Z" stroke="white" stroke-width="2" stroke-miterlimit="22.9256"/>
<path d="M71.7969 28.6257C74.3857 28.6257 76.4844 26.527 76.4844 23.9382C76.4844 21.3493 74.3857 19.2507 71.7969 19.2507C69.208 19.2507 67.1094 21.3493 67.1094 23.9382C67.1094 26.527 69.208 28.6257 71.7969 28.6257Z" stroke="white" stroke-width="2" stroke-miterlimit="22.9256"/>
<path d="M25.9375 46.2038V40.3444H54.0625V46.2038" stroke="white" stroke-width="2" stroke-miterlimit="22.9256"/>
<path d="M57.578 46.2038H22.4219V52.0632H57.578V46.2038Z" stroke="white" stroke-width="2" stroke-miterlimit="22.9256"/>
<path d="M22.422 52.0632L10.5469 70.8132M57.5783 52.0632L69.4534 70.8132" stroke="white" stroke-width="2" stroke-miterlimit="22.9256"/>
<path fill-rule="evenodd" clip-rule="evenodd" d="M39.9997 5.8269L42.923 11.261L48.9946 12.3621L44.7297 16.8214L45.5588 22.9361L39.9997 20.2582L34.4405 22.9361L35.2697 16.8214L31.0049 12.3621L37.0764 11.261L39.9997 5.8269Z" stroke="white" stroke-width="2" stroke-miterlimit="22.9256"/>
<path d="M54.9616 10.2383L57.4475 7.75238M25.0375 10.2383L22.5516 7.75238M22.5516 21.0105L25.0375 18.5246M19.8057 14.3814H23.3213M57.4475 21.0105L54.9616 18.5246M60.1933 14.3814H56.6777" stroke="white" stroke-width="2" stroke-miterlimit="22.9256"/>
<path d="M29.4531 40.3445V34.4852H35.3125M37.6561 34.4852H50.5469V40.3445" stroke="white" stroke-width="2" stroke-miterlimit="22.9256"/>
<path d="M56.0724 58.4465L54.8184 56.4663M58.5804 62.4066L57.3263 60.4265" stroke="white" stroke-width="2" stroke-miterlimit="22.9256"/>
</svg>
