<svg width="80" height="80" viewBox="0 0 80 80" fill="none" xmlns="http://www.w3.org/2000/svg">
<g clip-path="url(#clip0_341_931)">
<path d="M44.3263 69.7075C47.5745 65.6164 49.5138 60.4458 49.5138 54.8238C49.5138 41.5666 38.7305 30.8194 25.4288 30.8194C12.1269 30.8194 1.34375 41.5666 1.34375 54.8238C1.34375 68.0811 12.127 78.8281 25.4288 78.8281C30.9055 78.8281 35.9552 77.0063 40.0013 73.9375M35.6753 69.708C32.7591 71.7085 29.2286 72.8805 25.4286 72.8805C15.4386 72.8805 7.31125 64.7803 7.31125 54.8238C7.31125 44.8672 15.4386 36.7671 25.4286 36.7671C35.4186 36.7671 43.5461 44.8672 43.5461 54.8238C43.5461 58.8335 42.228 62.5421 40.0009 65.5417" stroke="white" stroke-width="2" stroke-miterlimit="10" stroke-linecap="round" stroke-linejoin="round"/>
<path d="M35.675 39.9405C32.7587 37.94 29.2289 36.767 25.4289 36.767C15.4389 36.767 7.31152 44.8672 7.31152 54.8237C7.31152 64.7803 15.4389 72.8805 25.4289 72.8805C29.2289 72.8805 32.7587 71.7075 35.675 69.707C32.4267 65.6159 30.4868 60.4458 30.4868 54.8237C30.4868 49.2017 32.4268 44.0316 35.675 39.9405Z" stroke="white" stroke-width="2" stroke-miterlimit="10"/>
<path d="M44.3252 69.707C47.2414 71.7075 50.7713 72.8805 54.5713 72.8805C64.5613 72.8805 72.6888 64.7803 72.6888 54.8237C72.6888 44.8672 64.5613 36.767 54.5713 36.767C50.7713 36.767 47.2414 37.94 44.3252 39.9405C47.5735 44.0316 49.5133 49.2017 49.5133 54.8237C49.5133 60.4458 47.5733 65.6159 44.3252 69.707Z" stroke="white" stroke-width="2" stroke-miterlimit="10"/>
<path d="M72.1845 71.1942C76.1988 66.906 78.6566 61.1513 78.6566 54.8238C78.6566 41.5666 67.8734 30.8194 54.5716 30.8194C49.0949 30.8194 44.0462 32.6425 40.0001 35.7113C41.6137 36.9352 43.0679 38.3566 44.3254 39.9405C47.2416 37.94 50.7715 36.7671 54.5715 36.7671C64.5615 36.7671 72.689 44.8672 72.689 54.8238C72.689 64.7803 64.5615 72.8805 54.5715 72.8805C50.7715 72.8805 47.2416 71.7075 44.3254 69.7071C42.6626 68.5664 41.1995 67.1567 39.9999 65.5413C37.7729 62.5416 36.4541 58.8335 36.4541 54.8238C36.4541 50.8141 37.7729 47.1061 39.9999 44.1064C38.8004 42.4908 37.3373 41.0813 35.6745 39.9405C32.4262 44.0316 30.4863 49.2017 30.4863 54.8238C30.4863 60.4458 32.4262 65.6161 35.6745 69.7071C36.9321 71.2911 38.3863 72.7125 39.9999 73.9363C44.0459 77.005 49.0948 78.8281 54.5715 78.8281C59.8496 78.8281 64.7301 77.1347 68.6988 74.2652" stroke="white" stroke-width="2" stroke-miterlimit="10" stroke-linecap="round" stroke-linejoin="round"/>
<path d="M27.6716 9.17298C27.3047 9.98126 27.0986 10.8778 27.0986 11.8228C27.0986 18.7958 40.0005 27.2336 40.0005 27.2336C40.0005 27.2336 52.9024 18.7958 52.9024 11.8228C52.9024 8.26954 50.0143 5.38892 46.4514 5.38892C42.8886 5.38907 40.0005 8.26954 40.0005 11.8228C40.0005 8.26954 37.1124 5.38892 33.5496 5.38892C32.6269 5.38892 31.7502 5.58345 30.9564 5.93157" stroke="white" stroke-width="2" stroke-miterlimit="10" stroke-linecap="round" stroke-linejoin="round"/>
<path d="M20.5869 1.17188L23.0407 2.58484" stroke="white" stroke-width="2" stroke-miterlimit="10" stroke-linecap="round" stroke-linejoin="round"/>
<path d="M17.584 12.3503H20.4174" stroke="white" stroke-width="2" stroke-miterlimit="10" stroke-linecap="round" stroke-linejoin="round"/>
<path d="M20.5869 23.5288L23.0407 22.1158" stroke="white" stroke-width="2" stroke-miterlimit="10" stroke-linecap="round" stroke-linejoin="round"/>
<path d="M59.4127 23.5289L56.959 22.116" stroke="white" stroke-width="2" stroke-miterlimit="10" stroke-linecap="round" stroke-linejoin="round"/>
<path d="M62.4164 12.3505H59.583" stroke="white" stroke-width="2" stroke-miterlimit="10" stroke-linecap="round" stroke-linejoin="round"/>
<path d="M59.4127 1.17188L56.959 2.58484" stroke="white" stroke-width="2" stroke-miterlimit="10" stroke-linecap="round" stroke-linejoin="round"/>
</g>
<defs>
<clipPath id="clip0_341_931">
<rect width="80" height="80" fill="white"/>
</clipPath>
</defs>
</svg>
