<svg width="80" height="80" viewBox="0 0 80 80" fill="none" xmlns="http://www.w3.org/2000/svg">
<g clip-path="url(#clip0_341_1322)">
<path d="M20.791 41.7445V78.4375" stroke="white" stroke-width="2" stroke-miterlimit="10" stroke-linecap="round" stroke-linejoin="round"/>
<path d="M20.791 57.1454L28.3718 49.5646" stroke="white" stroke-width="2" stroke-miterlimit="10" stroke-linecap="round" stroke-linejoin="round"/>
<path d="M20.7914 50.4067L15.0752 44.6905" stroke="white" stroke-width="2" stroke-miterlimit="10" stroke-linecap="round" stroke-linejoin="round"/>
<path d="M40 77.4917V16.5625" stroke="white" stroke-width="2" stroke-miterlimit="10" stroke-linecap="round" stroke-linejoin="round"/>
<path d="M40.0332 26.9313L45.2595 21.705" stroke="white" stroke-width="2" stroke-miterlimit="10" stroke-linecap="round" stroke-linejoin="round"/>
<path d="M39.7001 33.9839L33.46 27.7437" stroke="white" stroke-width="2" stroke-miterlimit="10" stroke-linecap="round" stroke-linejoin="round"/>
<path d="M70.7577 42.2548C71.008 41.293 71.1414 40.2841 71.1414 39.2441C71.1414 32.6592 65.8034 27.3213 59.2188 27.3213C52.6341 27.3213 47.2961 32.6592 47.2961 39.2441C47.2961 41.1438 47.7411 42.9394 48.5316 44.5334C43.6327 45.7459 40 50.1694 40 55.4431C40 61.6511 45.0325 66.6836 51.2405 66.6836C53.8773 66.6836 56.3002 65.7733 58.2172 64.253C60.3183 65.7814 62.9041 66.6836 65.7011 66.6836C72.7352 66.6836 78.4375 60.9813 78.4375 53.9472C78.4375 48.7098 75.2759 44.2116 70.7577 42.2548Z" stroke="white" stroke-width="2" stroke-miterlimit="10" stroke-linecap="round" stroke-linejoin="round"/>
<path d="M58.2168 46.4577V78.4375" stroke="white" stroke-width="2" stroke-miterlimit="10" stroke-linecap="round" stroke-linejoin="round"/>
<path d="M58.2168 53.6095L64.8238 47.0025" stroke="white" stroke-width="2" stroke-miterlimit="10" stroke-linecap="round" stroke-linejoin="round"/>
<path d="M58.2172 59.5779L51.9971 53.3577" stroke="white" stroke-width="2" stroke-miterlimit="10" stroke-linecap="round" stroke-linejoin="round"/>
<path d="M1.5625 78.4375H78.4375" stroke="white" stroke-width="2" stroke-miterlimit="10" stroke-linecap="round" stroke-linejoin="round"/>
<path d="M78.4378 9.32291C78.4378 13.6088 74.9632 17.0834 70.6773 17.0834C66.3914 17.0834 62.917 13.6088 62.917 9.32291C62.917 5.03697 66.3914 1.56244 70.6773 1.56244C74.9632 1.56244 78.4378 5.03697 78.4378 9.32291Z" stroke="white" stroke-width="2" stroke-miterlimit="10" stroke-linecap="round" stroke-linejoin="round"/>
<path d="M2.84277 53.0736C5.61949 60.2775 12.6086 65.3888 20.7912 65.3888C30.5815 65.3888 38.6631 58.0721 39.8656 48.6083" stroke="white" stroke-width="2" stroke-miterlimit="10" stroke-linecap="round" stroke-linejoin="round"/>
<path d="M26.5296 27.8021C24.7175 27.2363 22.7901 26.9313 20.7914 26.9313C12.6084 26.9313 5.61934 32.0429 2.84277 39.2471" stroke="white" stroke-width="2" stroke-miterlimit="10" stroke-linecap="round" stroke-linejoin="round"/>
<path d="M53.3463 28.8662C53.5146 27.6431 53.6014 26.394 53.6014 25.1246C53.6014 15.0562 48.131 6.26587 40.0005 1.56259C31.8699 6.26587 26.3994 15.0562 26.3994 25.1246C26.3994 35.1931 31.8699 43.9832 40.0005 48.6866C42.9588 46.9754 45.565 44.7229 47.6836 42.0648" stroke="white" stroke-width="2" stroke-miterlimit="10" stroke-linecap="round" stroke-linejoin="round"/>
</g>
<defs>
<clipPath id="clip0_341_1322">
<rect width="80" height="80" fill="white"/>
</clipPath>
</defs>
</svg>
