<svg width="80" height="80" viewBox="0 0 80 80" fill="none" xmlns="http://www.w3.org/2000/svg">
<path d="M31.0158 70.7399H21.0947V78.4375" stroke="white" stroke-width="2" stroke-miterlimit="10" stroke-linecap="round" stroke-linejoin="round"/>
<path d="M31.0156 78.4376H73.5877V55.628C73.5877 53.6527 71.9711 52.0405 69.9956 52.0405H34.6033C32.6323 52.0405 31.0158 53.6527 31.0158 55.628V78.4376H31.0156Z" stroke="white" stroke-width="2" stroke-miterlimit="10" stroke-linecap="round" stroke-linejoin="round"/>
<path d="M31.0153 63.0465H11.1953" stroke="white" stroke-width="2" stroke-miterlimit="10" stroke-linecap="round" stroke-linejoin="round"/>
<path d="M69.181 52.0403V44.8032H35.4229V52.0403" stroke="white" stroke-width="2" stroke-miterlimit="10" stroke-linecap="round" stroke-linejoin="round"/>
<path d="M65.6952 44.8033C67.8964 42.5091 69.3669 38.2749 67.2675 33.3011C63.1928 37.6018 61.0447 38.2705 57.0541 38.2705H42.6552C38.4255 38.2705 37.1675 41.5702 37.9869 44.8033" stroke="white" stroke-width="2" stroke-miterlimit="10" stroke-linecap="round" stroke-linejoin="round"/>
<path d="M31.0154 78.4375H13.968C12.4445 78.4375 11.1954 77.1884 11.1954 75.6648V63.0466L6.41211 8.97672V4.27312C6.41211 2.785 7.63445 1.5625 9.12258 1.5625H42.9871C44.4798 1.5625 45.6977 2.785 45.6977 4.27312V8.97672L43.1068 38.2705" stroke="white" stroke-width="2" stroke-miterlimit="10" stroke-linecap="round" stroke-linejoin="round"/>
<path d="M52.3016 69.9825C57.1249 69.9825 61.0623 67.8476 61.0623 65.239C61.0623 62.6259 57.1248 60.4956 52.3016 60.4956C47.474 60.4956 43.541 62.6259 43.541 65.239C43.541 67.8476 47.474 69.9825 52.3016 69.9825Z" stroke="white" stroke-width="2" stroke-miterlimit="10" stroke-linecap="round" stroke-linejoin="round"/>
<path d="M34.023 23.6678H18.0918V32.8227H34.023V23.6678Z" stroke="white" stroke-width="2" stroke-miterlimit="10" stroke-linecap="round" stroke-linejoin="round"/>
<path d="M6.41211 8.97668H45.6977" stroke="white" stroke-width="2" stroke-miterlimit="10" stroke-linecap="round" stroke-linejoin="round"/>
</svg>
