<svg width="80" height="80" viewBox="0 0 80 80" fill="none" xmlns="http://www.w3.org/2000/svg">
<path d="M41.7957 47.6001C41.4473 40.8704 35.8785 35.522 29.0629 35.522C22.2473 35.522 16.6785 40.8704 16.3301 47.6001" stroke="white" stroke-width="2" stroke-miterlimit="10" stroke-linecap="round" stroke-linejoin="round"/>
<path d="M29.0625 30.1515V28.6868" stroke="white" stroke-width="2" stroke-miterlimit="10" stroke-linecap="round" stroke-linejoin="round"/>
<path d="M38.124 32.5793L38.8564 31.3109" stroke="white" stroke-width="2" stroke-miterlimit="10" stroke-linecap="round" stroke-linejoin="round"/>
<path d="M44.7568 39.2126L46.0253 38.4803" stroke="white" stroke-width="2" stroke-miterlimit="10" stroke-linecap="round" stroke-linejoin="round"/>
<path d="M13.368 39.2126L12.0996 38.4803" stroke="white" stroke-width="2" stroke-miterlimit="10" stroke-linecap="round" stroke-linejoin="round"/>
<path d="M20.0009 32.5793L19.2686 31.3109" stroke="white" stroke-width="2" stroke-miterlimit="10" stroke-linecap="round" stroke-linejoin="round"/>
<path d="M10.7194 71.5695H1.17188" stroke="white" stroke-width="2" stroke-miterlimit="10" stroke-linecap="round" stroke-linejoin="round"/>
<path d="M78.8285 71.5695H16.1885" stroke="white" stroke-width="2" stroke-miterlimit="10" stroke-linecap="round" stroke-linejoin="round"/>
<path d="M66.9344 47.6001H1.17188" stroke="white" stroke-width="2" stroke-miterlimit="10" stroke-linecap="round" stroke-linejoin="round"/>
<path d="M78.8285 47.6001H74.1348" stroke="white" stroke-width="2" stroke-miterlimit="10" stroke-linecap="round" stroke-linejoin="round"/>
<path d="M16.5342 22.0259C16.1201 21.5306 15.4965 21.215 14.8012 21.215C14.0404 21.215 13.3671 21.5914 12.9582 22.1676C12.8489 22.3221 12.6164 22.322 12.5068 22.1676C12.0982 21.5914 11.4264 21.215 10.6653 21.215C9.9684 21.215 9.34668 21.5306 8.93262 22.0259" stroke="white" stroke-width="2" stroke-miterlimit="10" stroke-linecap="round" stroke-linejoin="round"/>
<path d="M35.7578 9.24151C35.3438 8.7462 34.7202 8.43057 34.025 8.43057C33.2641 8.43057 32.5908 8.80698 32.182 9.38338C32.0725 9.53776 31.84 9.53776 31.7305 9.38323C31.3219 8.80698 30.65 8.43057 29.8889 8.43057C29.192 8.43057 28.5703 8.7462 28.1562 9.24151" stroke="white" stroke-width="2" stroke-miterlimit="10" stroke-linecap="round" stroke-linejoin="round"/>
<path d="M62 27.35C67.2531 34.9406 68.4375 43.6485 65.9939 51.9156" stroke="white" stroke-width="2" stroke-miterlimit="10" stroke-linecap="round" stroke-linejoin="round"/>
<path d="M65.3643 25.4046C73.0143 33.7937 76.1268 44.8656 72.8705 54.6375" stroke="white" stroke-width="2" stroke-miterlimit="10" stroke-linecap="round" stroke-linejoin="round"/>
<path d="M48.4736 64.0751C49.7268 60.886 52.8299 58.6282 56.4627 58.6282C56.5657 58.6282 56.6688 58.631 56.7719 58.6344C57.8861 58.6709 58.9846 58.4501 59.9766 57.9688" stroke="white" stroke-width="2" stroke-miterlimit="10" stroke-linecap="round" stroke-linejoin="round"/>
<path d="M67.9863 54.7375C68.9035 54.5953 69.8455 54.5218 70.8034 54.5218C73.6815 54.5218 76.4051 55.1875 78.8285 56.3718" stroke="white" stroke-width="2" stroke-miterlimit="10" stroke-linecap="round" stroke-linejoin="round"/>
<path d="M78.8278 64.0746H44.6436" stroke="white" stroke-width="2" stroke-miterlimit="10" stroke-linecap="round" stroke-linejoin="round"/>
<path d="M53.6738 12.7109C52.2895 12.7453 50.9099 13.0641 49.6566 13.6734C49.3456 13.825 49.3738 14.2797 49.6989 14.3969C52.3628 15.3609 54.7317 17.0828 56.5425 19.2656" stroke="white" stroke-width="2" stroke-miterlimit="10" stroke-linecap="round" stroke-linejoin="round"/>
<path d="M58.9268 14.0906C59.4846 14.4344 60.0064 14.8438 60.4783 15.3141C60.7408 15.5766 60.9861 15.8563 61.2111 16.15" stroke="white" stroke-width="2" stroke-miterlimit="10" stroke-linecap="round" stroke-linejoin="round"/>
<path d="M54.619 25.5282L46.8083 23.7454C46.5473 23.6844 46.4128 23.3923 46.5393 23.1579C48.2676 19.9626 51.9675 18.1735 55.6817 19.0204C58.0878 19.5704 60.0097 21.1157 61.1097 23.1219" stroke="white" stroke-width="2" stroke-miterlimit="10" stroke-linecap="round" stroke-linejoin="round"/>
<path d="M67.4831 18.1L69.8441 10.4453C69.9237 10.189 69.738 9.92654 69.4708 9.91873C65.8394 9.81716 62.4395 12.1265 61.3175 15.7672C60.5894 18.125 60.9659 20.5617 62.1536 22.5179" stroke="white" stroke-width="2" stroke-miterlimit="10" stroke-linecap="round" stroke-linejoin="round"/>
<path d="M65.1875 25.4485C65.1953 25.4531 65.2031 25.4578 65.2108 25.4625L65.217 25.4422V25.4406" stroke="white" stroke-width="2" stroke-miterlimit="10" stroke-linecap="round" stroke-linejoin="round"/>
<path d="M54.5115 25.6337C56.2766 23.8047 58.6785 22.9631 61.0305 23.1186C61.5193 23.1509 61.9735 22.8886 62.1899 22.4494C63.2312 20.3347 65.161 18.6753 67.6274 18.0612C71.2459 17.1604 74.9001 18.7858 76.7324 21.8186C76.9296 22.145 76.7509 22.57 76.3809 22.662L63.4051 25.8928L54.1193 35.5148C53.8545 35.7892 53.3971 35.7314 53.213 35.3975C51.5027 32.2944 51.9223 28.3169 54.5115 25.6337Z" stroke="white" stroke-width="2" stroke-miterlimit="10" stroke-linecap="round" stroke-linejoin="round"/>
<path d="M63.6971 51.2672C66.118 51.2672 68.0807 53.2299 68.0807 55.6508C68.0807 58.0718 66.118 60.0344 63.6971 60.0344C61.2761 60.0344 59.3135 58.0718 59.3135 55.6508C59.3135 53.2299 61.2761 51.2672 63.6971 51.2672Z" stroke="white" stroke-width="2" stroke-miterlimit="10" stroke-linecap="round" stroke-linejoin="round"/>
<path d="M37.2449 53.0845H20.8799" stroke="white" stroke-width="2" stroke-miterlimit="10" stroke-linecap="round" stroke-linejoin="round"/>
<path d="M34.2484 57.5668H23.877" stroke="white" stroke-width="2" stroke-miterlimit="10" stroke-linecap="round" stroke-linejoin="round"/>
<path d="M31.2518 62.0492H26.874" stroke="white" stroke-width="2" stroke-miterlimit="10" stroke-linecap="round" stroke-linejoin="round"/>
</svg>
