<svg width="16" height="12" viewBox="0 0 16 12" fill="none" xmlns="http://www.w3.org/2000/svg">
<path d="M8.01302 6.77343C8.29416 6.77343 8.54873 6.64628 8.83673 6.35142L14.6624 0.585712C14.4147 0.344854 13.9527 0.23114 13.2899 0.23114H2.50816C1.94559 0.23114 1.55073 0.338283 1.32959 0.55914L7.18902 6.35171C7.47702 6.63943 7.73816 6.77343 8.01273 6.77343M0.773874 10.6909L5.50816 6.01L0.760731 1.32914C0.66016 1.51685 0.606445 1.83828 0.606445 2.30028V9.69314C0.606445 10.1686 0.666731 10.5034 0.773874 10.6909ZM15.2384 10.6843C15.3387 10.49 15.3927 10.1617 15.3927 9.69285V2.30057C15.3927 1.852 15.3456 1.53028 15.245 1.34971L10.5173 6.01L15.2384 10.6843ZM2.7093 11.7686H13.4904C14.0533 11.7686 14.4416 11.6614 14.6624 11.4471L9.84102 6.66628L9.39245 7.11485C8.93702 7.55685 8.50187 7.75771 8.01302 7.75771C7.52416 7.75771 7.08873 7.55685 6.63359 7.11485L6.18502 6.66628L1.36987 11.4409C1.62416 11.6617 2.07273 11.7689 2.70902 11.7689" fill="white"/>
</svg>
