<svg width="14" height="14" viewBox="0 0 14 14" fill="none" xmlns="http://www.w3.org/2000/svg">
<path d="M4.18713 9.78915C6.12256 11.7243 8.47971 13.2177 10.4014 13.2177C11.2654 13.2177 12.022 12.9163 12.6314 12.2466C12.9863 11.8514 13.2074 11.3894 13.2074 10.9343C13.2074 10.5994 13.08 10.278 12.7588 10.0503L10.7094 8.59029C10.3948 8.376 10.1337 8.26886 9.89256 8.26886C9.58456 8.26886 9.31656 8.44315 9.00856 8.74429L8.53313 9.21315C8.49988 9.24685 8.4603 9.27366 8.41666 9.29205C8.37303 9.31043 8.3262 9.32003 8.27885 9.32029C8.17171 9.32029 8.07771 9.28029 8.00428 9.24657C7.59571 9.02572 6.88599 8.41629 6.22285 7.76C5.56656 7.10372 4.95713 6.394 4.74285 5.97886C4.69669 5.89693 4.67147 5.80487 4.66942 5.71086C4.66942 5.624 4.69599 5.53657 4.76971 5.46315L5.23828 4.97457C5.53999 4.66629 5.71399 4.39829 5.71399 4.09029C5.71399 3.84943 5.60685 3.58829 5.38599 3.27343L3.94599 1.24429C3.71171 0.922859 3.38371 0.782288 3.02199 0.782288C2.57999 0.782288 2.11799 0.983145 1.72971 1.36514C1.07999 1.988 0.791992 2.75772 0.791992 3.608C0.791992 5.53 2.25856 7.86057 4.18713 9.78915Z" fill="white"/>
</svg>
